# xmcd CD database file
#
# Track frame offsets:
#	150
#	15689
#	42565
#	63536
#	86222
#	99547
#	125145
#	152593
#	171622
#	199156
#
# Disc length: 2939 seconds
#
# Revision: 0
# Processed by: cddbd v1.4PL0 Copyright (c) Steve Scherf et al.
# Submitted via: CDex 1.51
#
DISCID=920b790a
DTITLE=George Kelly - lucid intervals
DYEAR=1900
DGENRE=Blues
TTITLE0=Get What U Pay 4
TTITLE1=Where the Blues Are
TTITLE2=Threshing Floor
TTITLE3=Walking Distance
TTITLE4=Bluesman
TTITLE5=Fugitive Kind
TTITLE6=Otis Spann
TTITLE7=Love Interest
TTITLE8=Desert Island
TTITLE9=Pyrrhic Victory
EXTD=
EXTT0=
EXTT1=
EXTT2=
EXTT3=
EXTT4=
EXTT5=
EXTT6=
EXTT7=
EXTT8=
EXTT9=
PLAYORDER=
